<?xml version="1.0" encoding="utf-8"?>
<!-- Generator: Adobe Illustrator 23.1.1, SVG Export Plug-In . SVG Version: 6.00 Build 0)  -->
<svg version="1.1" id="Capa_1" xmlns="http://www.w3.org/2000/svg" xmlns:xlink="http://www.w3.org/1999/xlink" x="0px" y="0px"
	 width="55px" height="49px" viewBox="0 0 55 49" style="enable-background:new 0 0 55 49;" xml:space="preserve">
<path d="M27.5,0c-6.6,0-12,5.4-12,12c0,5.4,7.9,15.2,10.9,18.7c0.6,0.7,1.7,0.7,2.3,0c3-3.6,10.9-13.3,10.9-18.7
	C39.5,5.4,34.1,0,27.5,0z M27.5,16c-2.2,0-4-1.8-4-4s1.8-4,4-4s4,1.8,4,4S29.7,16,27.5,16z M1.9,20.6C0.8,21.1,0,22.2,0,23.5v23.9
	c0,1.1,1.1,1.8,2.1,1.4l13.2-6V20.5c-0.8-1.5-1.5-3-2-4.4L1.9,20.6z M27.5,34.3c-1.3,0-2.6-0.6-3.5-1.6c-1.9-2.2-3.9-4.7-5.7-7.3
	v17.4l18.3,6.1V25.4c-1.8,2.6-3.8,5.1-5.7,7.3C30.1,33.8,28.8,34.3,27.5,34.3z M52.9,15.4l-13.2,6v27.5l13.4-5.3
	c1.2-0.5,1.9-1.6,1.9-2.8V16.8C55,15.7,53.9,15,52.9,15.4L52.9,15.4z"/>
</svg>
